<svg height="300px" width="300px" fill="#000000" xmlns="http://www.w3.org/2000/svg" xmlns:xlink="http://www.w3.org/1999/xlink" version="1.1" x="0px" y="0px" viewBox="0 0 128 128" style="enable-background:new 0 0 128 128;" xml:space="preserve"><g><path d="M113.5,81.7l-0.1-36.1c3.7-1.2,6.3-4.6,6.3-8.7c0-5-4.1-9.1-9.1-9.1c0,0,0,0,0,0c-2.3,0-4.5,0.9-6.1,2.4L72.9,12.2   c0.1-0.6,0.2-1.2,0.2-1.8c0-2.4-1-4.7-2.7-6.4c-1.7-1.7-4-2.6-6.4-2.6c-5,0-9.1,4.1-9.1,9.1c0,0.6,0.1,1.2,0.2,1.8L23.5,30.6   c-1.7-1.6-3.9-2.5-6.2-2.4c-5,0-9.1,4.1-9.1,9.1c0,2.4,1,4.7,2.7,6.4c1.1,1.1,2.5,1.9,4,2.3L15,81.9c-3.8,1.1-6.6,4.6-6.6,8.8   c0,5,4.1,9.1,9.1,9.1c0,0,0,0,0,0c2.3,0,4.5-0.9,6.1-2.4l31.9,18.2c-0.1,0.6-0.2,1.3-0.2,1.9c0,2.4,1,4.7,2.7,6.4   c1.7,1.7,4,2.6,6.4,2.6c0,0,0,0,0,0c5,0,9.1-4.1,9.1-9.1c0-0.6-0.1-1.3-0.2-1.9l31.6-18.4c1.7,1.4,3.7,2.2,5.9,2.2c0,0,0,0,0,0   c5,0,9.1-4.1,9.1-9.1c0-2.4-1-4.7-2.7-6.4C116.1,82.9,114.8,82.1,113.5,81.7z M70.8,111.2c-0.6-0.6-1.2-1.1-2-1.5l11.9-19.9h20.9   c0,0.2,0,0.4,0,0.6c0,0.9,0.1,1.8,0.4,2.7L70.8,111.2z M66.5,84.8v-18L83.3,76L78,84.8H66.5z M75,89.8l-8.5,14.1V89.8H75z    M36.5,63.2l5.6-9.7l16.7,9.1L41.9,72L36.5,63.2z M37.5,74.5l-11.2,6.2l7.3-12.6L37.5,74.5z M33.5,58.4L24.6,44l13.1,7.1L33.5,58.4   z M87.7,78.4l11.8,6.4H83.8L87.7,78.4z M90.2,74.1l2.7-4.5l4.9,8.7L90.2,74.1z M85.8,71.7l-16.7-9.1l15.1-8.4l5.9,10.4L85.8,71.7z    M88.6,51.7l13.8-7.7l-9.4,15.6L88.6,51.7z M86.2,47.4l-4.3-7.6h17.9L86.2,47.4z M81.8,49.8l-15.3,8.5V39.8h9.7L81.8,49.8z    M66.5,34.8V22.6l6.8,12.1H66.5z M61.5,19.9v14.9h-8.6L61.5,19.9z M61.5,39.8v18.7l-16.9-9.2l5.4-9.4H61.5z M40.2,46.8l-12.9-7   h16.9L40.2,46.8z M20,46l10.7,17.3L20,81.7L19.9,46C19.9,46,19.9,46,20,46z M40.2,78.7l3.8,6.1H29.2L40.2,78.7z M44.5,76.3l17-9.4   v18H49.8L44.5,76.3z M61.5,89.8v13.9l-8.6-13.9H61.5z M106,82.6L95.9,64.6l11.5-19.1c0.3,0.1,0.6,0.2,0.9,0.3l0.1,35.8   C107.6,81.8,106.8,82.1,106,82.6z M110.5,32.9C110.5,32.9,110.5,32.9,110.5,32.9c2.3,0,4.1,1.8,4.1,4.1c0,2.3-1.8,4.1-4.1,4.1   c0,0,0,0,0,0c-2.3,0-4.1-1.8-4.1-4.1C106.4,34.7,108.3,32.9,110.5,32.9z M101.8,34.5c0,0.1,0,0.2-0.1,0.3H79.1l-9.6-17.1   c0.4-0.3,0.8-0.7,1.2-1.1L101.8,34.5z M64,6.3C64,6.3,64,6.3,64,6.3c1.1,0,2.1,0.4,2.9,1.2c0.8,0.8,1.2,1.8,1.2,2.9   c0,2.3-1.8,4.1-4.1,4.1c0,0,0,0,0,0c-2.3,0-4.1-1.8-4.1-4.1C59.9,8.2,61.7,6.3,64,6.3z M57.5,16.8L47.1,34.8H26.3l31.1-18.1   C57.4,16.7,57.5,16.8,57.5,16.8z M13.2,37.3c0-1.1,0.4-2.1,1.2-2.9c0.8-0.8,1.8-1.2,2.9-1.2c0,0,0,0,0,0c1.1,0,2.1,0.4,2.9,1.2   c0.8,0.8,1.2,1.8,1.2,2.9c0,1.1-0.4,2.1-1.2,2.9s-1.8,1.2-2.9,1.2h0c0,0,0,0,0,0c-1.1,0-2.1-0.4-2.9-1.2   C13.6,39.4,13.2,38.4,13.2,37.3z M17.5,94.8C17.5,94.8,17.5,94.8,17.5,94.8c-2.3,0-4.1-1.8-4.1-4.1c0-2.3,1.8-4.1,4.1-4.1   c0,0,0,0,0,0c1.1,0,2.1,0.4,2.9,1.2c0.8,0.8,1.2,1.8,1.2,2.9C21.6,92.9,19.7,94.8,17.5,94.8z M26.2,93.2c0.2-0.8,0.4-1.6,0.4-2.5   c0-0.3,0-0.6,0-0.8H47l12.4,20.1c-0.6,0.4-1.1,0.8-1.6,1.3L26.2,93.2z M64.3,121.7C64.3,121.7,64.3,121.7,64.3,121.7   c-1.1,0-2.1-0.4-2.9-1.2c-0.8-0.8-1.2-1.8-1.2-2.9c0-2.3,1.8-4.1,4.1-4.1c0,0,0,0,0,0c1.6,0,3,0.9,3.7,2.3l0,0   c0.3,0.5,0.4,1.1,0.4,1.7C68.4,119.8,66.6,121.7,64.3,121.7z M110.7,94.5c-1.1,0-2.1-0.4-2.9-1.2s-1.2-1.8-1.2-2.9   c0-1.1,0.4-2.1,1.2-2.9c0.8-0.8,1.8-1.2,2.9-1.2c0,0,0,0,0,0c1.1,0,2.1,0.4,2.9,1.2c0.8,0.8,1.2,1.8,1.2,2.9   C114.8,92.6,113,94.5,110.7,94.5z"/></g></svg>